<?xml version="1.0" encoding="UTF-8" standalone="no"?><svg xmlns="http://www.w3.org/2000/svg" xmlns:xlink="http://www.w3.org/1999/xlink" clip-rule="evenodd" stroke-miterlimit="10" viewBox="0 0 1920 1080"><desc>SVG generated by Keynote</desc><defs></defs><g transform="matrix(1.00, 0.00, -0.00, -1.00, 0.0, 1080.0)"><path d="M 0.0 1080.0 L 1920.0 1080.0 L 1920.0 0.0 L 0.0 0.0 Z M 0.0 1080.0 " fill="#4197BE"></path><text xml:space="preserve" font-family="Monaco,Monaco" font-size="112.0" fill="#FCFEFB" transform="matrix(1.00, 0.00, -0.00, -1.00, 523.1, 498.4)">~</text><text xml:space="preserve" font-family="Monaco,Monaco" font-size="112.0" fill="#FCFEFB" transform="matrix(1.00, 0.00, -0.00, -1.00, 590.4, 498.4)"> </text><text xml:space="preserve" font-family="Monaco,Monaco" font-size="112.0" fill="#FCFEFB" transform="matrix(1.00, 0.00, -0.00, -1.00, 657.6, 498.4)">T</text><text xml:space="preserve" font-family="Monaco,Monaco" font-size="112.0" fill="#FCFEFB" transform="matrix(1.00, 0.00, -0.00, -1.00, 724.8, 498.4)">h</text><text xml:space="preserve" font-family="Monaco,Monaco" font-size="112.0" fill="#FCFEFB" transform="matrix(1.00, 0.00, -0.00, -1.00, 792.0, 498.4)">a</text><text xml:space="preserve" font-family="Monaco,Monaco" font-size="112.0" fill="#FCFEFB" transform="matrix(1.00, 0.00, -0.00, -1.00, 859.2, 498.4)">n</text><text xml:space="preserve" font-family="Monaco,Monaco" font-size="112.0" fill="#FCFEFB" transform="matrix(1.00, 0.00, -0.00, -1.00, 926.5, 498.4)">k</text><text xml:space="preserve" font-family="Monaco,Monaco" font-size="112.0" fill="#FCFEFB" transform="matrix(1.00, 0.00, -0.00, -1.00, 993.7, 498.4)"> </text><text xml:space="preserve" font-family="Monaco,Monaco" font-size="112.0" fill="#FCFEFB" transform="matrix(1.00, 0.00, -0.00, -1.00, 1060.9, 498.4)">Y</text><text xml:space="preserve" font-family="Monaco,Monaco" font-size="112.0" fill="#FCFEFB" transform="matrix(1.00, 0.00, -0.00, -1.00, 1128.1, 498.4)">o</text><text xml:space="preserve" font-family="Monaco,Monaco" font-size="112.0" fill="#FCFEFB" transform="matrix(1.00, 0.00, -0.00, -1.00, 1195.4, 498.4)">u</text><text xml:space="preserve" font-family="Monaco,Monaco" font-size="112.0" fill="#FCFEFB" transform="matrix(1.00, 0.00, -0.00, -1.00, 1262.6, 498.4)"> </text><text xml:space="preserve" font-family="Monaco,Monaco" font-size="112.0" fill="#FCFEFB" transform="matrix(1.00, 0.00, -0.00, -1.00, 1329.8, 498.4)">~</text></g></svg>